<svg width="1022" height="1003" viewBox="0 0 1022 1003" fill="none" xmlns="http://www.w3.org/2000/svg">
<g clip-path="url(#clip0_4:5)">
<path d="M938.745 521.973C932.752 758.17 736.311 944.807 500.028 938.745C263.746 932.684 77.1968 736.341 83.2728 500.103C89.3488 263.866 285.663 77.1918 521.898 83.2729C758.132 89.354 944.809 285.681 938.745 521.973Z" fill="#33D8FC"/>
<path d="M682.008 410.499C677.948 353.056 628.97 332.582 566.647 325.52L568.698 246.032L520.301 244.809L518.294 322.209C505.586 321.887 492.577 321.79 479.657 321.735L481.623 243.835L433.272 242.601L431.268 322.048L333.708 319.71L332.4 371.393C332.4 371.393 368.151 371.623 367.54 372.268C387.138 372.776 393.237 384.31 394.836 394.179L389.273 611.927C388.255 618.073 384.379 627.809 370.683 627.462C371.291 628.028 335.501 626.517 335.501 626.517L324.428 684.133L421.945 686.911L419.913 767.315L468.244 768.554L470.282 689.007C483.571 689.612 496.384 690.051 508.913 690.359L506.872 769.538L555.261 770.764L557.325 690.505C638.796 687.907 696.261 668.865 705.258 592.712C712.535 531.354 684.317 503.167 638.416 490.891C666.829 477.294 685.009 452.581 681.977 410.537L682.008 410.499ZM609.895 580.695C608.351 640.778 505.689 631.328 472.878 630.514L475.609 523.997C508.409 524.84 611.472 518.035 609.91 580.683L609.895 580.695ZM591.268 429.834C589.863 484.515 504.224 475.94 476.893 475.24L479.325 378.615C506.666 379.322 592.698 372.824 591.233 429.838" fill="black"/>
</g>
<defs>
<clipPath id="clip0_4:5">
<rect width="856" height="856" fill="white" transform="translate(0.287781 186.129) rotate(-12.539)"/>
</clipPath>
</defs>
</svg>
